{
  "accessors": [
    {
      "bufferView": 1,
      "componentType": 5126,
      "count": 65532,
      "max": [
        0.44793301820755005,
        0.24619002640247345,
        1.3061860799789429
      ],
      "min": [
        -0.9965486526489258,
        -1.023163080215454,
        -1.6463396549224854
      ],
      "type": "VEC3"
    },
    {
      "bufferView": 1,
      "byteOffset": 786384,
      "componentType": 5126,
      "count": 65532,
      "max": [
        0.9999723434448242,
        0.9999961853027344,
        0.9999898076057434
      ],
      "min": [
        -0.9999675750732422,
        -0.9999990463256836,
        -0.999949038028717
      ],
      "type": "VEC3"
    },
    {
      "bufferView": 0,
      "componentType": 5125,
      "count": 348765,
      "type": "SCALAR"
    },
    {
      "bufferView": 1,
      "byteOffset": 1572768,
      "componentType": 5126,
      "count": 65532,
      "max": [
        0.5639456510543823,
        0.5416862368583679,
        1.2682349681854248
      ],
      "min": [
        -0.9216676950454712,
        -0.9973530769348145,
        -1.60853910446167
      ],
      "type": "VEC3"
    },
    {
      "bufferView": 1,
      "byteOffset": 2359152,
      "componentType": 5126,
      "count": 65532,
      "max": [
        0.9999769926071167,
        0.999941885471344,
        0.9999780654907227
      ],
      "min": [
        -0.9999991059303284,
        -0.9999990463256836,
        -0.9999153017997742
      ],
      "type": "VEC3"
    },
    {
      "bufferView": 0,
      "byteOffset": 1395060,
      "componentType": 5125,
      "count": 334023,
      "type": "SCALAR"
    },
    {
      "bufferView": 1,
      "byteOffset": 3145536,
      "componentType": 5126,
      "count": 65532,
      "max": [
        0.6011818051338196,
        0.8575165867805481,
        1.2044559717178345
      ],
      "min": [
        -0.9964737296104431,
        -1.0223749876022339,
        -1.2376657724380493
      ],
      "type": "VEC3"
    },
    {
      "bufferView": 1,
      "byteOffset": 3931920,
      "componentType": 5126,
      "count": 65532,
      "max": [
        0.9999990463256836,
        0.999870240688324,
        0.9998172521591187
      ],
      "min": [
        -0.9999051690101624,
        -0.9999549984931946,
        -0.9999929666519165
      ],
      "type": "VEC3"
    },
    {
      "bufferView": 0,
      "byteOffset": 2731152,
      "componentType": 5125,
      "count": 325791,
      "type": "SCALAR"
    },
    {
      "bufferView": 1,
      "byteOffset": 4718304,
      "componentType": 5126,
      "count": 65532,
      "max": [
        0.20845763385295868,
        0.2003714144229889,
        0.32161447405815125
      ],
      "min": [
        -0.9493361711502075,
        -0.3301249146461487,
        -1.8918169736862183
      ],
      "type": "VEC3"
    },
    {
      "bufferView": 1,
      "byteOffset": 5504688,
      "componentType": 5126,
      "count": 65532,
      "max": [
        0.9998190402984619,
        0.9999783635139465,
        0.9999806880950928
      ],
      "min": [
        -0.9997032880783081,
        -0.9999818801879883,
        -0.9999440312385559
      ],
      "type": "VEC3"
    },
    {
      "bufferView": 0,
      "byteOffset": 4034316,
      "componentType": 5125,
      "count": 341649,
      "type": "SCALAR"
    },
    {
      "bufferView": 1,
      "byteOffset": 6291072,
      "componentType": 5126,
      "count": 65532,
      "max": [
        1.052803874015808,
        1.0548890829086304,
        0.9066093564033508
      ],
      "min": [
        -0.9396215081214905,
        -0.5320460200309753,
        -1.8917475938796997
      ],
      "type": "VEC3"
    },
    {
      "bufferView": 1,
      "byteOffset": 7077456,
      "componentType": 5126,
      "count": 65532,
      "max": [
        0.9999954104423523,
        0.999993085861206,
        0.9999532103538513
      ],
      "min": [
        -0.9999562501907349,
        -0.9999992251396179,
        -0.9999440312385559
      ],
      "type": "VEC3"
    },
    {
      "bufferView": 0,
      "byteOffset": 5400912,
      "componentType": 5125,
      "count": 319512,
      "type": "SCALAR"
    },
    {
      "bufferView": 1,
      "byteOffset": 7863840,
      "componentType": 5126,
      "count": 65532,
      "max": [
        1.2521398067474365,
        1.1456001996994019,
        1.2020225524902344
      ],
      "min": [
        -0.986135721206665,
        -1.0109976530075073,
        -1.5970171689987183
      ],
      "type": "VEC3"
    },
    {
      "bufferView": 1,
      "byteOffset": 8650224,
      "componentType": 5126,
      "count": 65532,
      "max": [
        0.9999196529388428,
        0.9999969601631165,
        0.9999964237213135
      ],
      "min": [
        -0.9999597072601318,
        -0.999987781047821,
        -0.9999863505363464
      ],
      "type": "VEC3"
    },
    {
      "bufferView": 0,
      "byteOffset": 6678960,
      "componentType": 5125,
      "count": 312366,
      "type": "SCALAR"
    },
    {
      "bufferView": 1,
      "byteOffset": 9436608,
      "componentType": 5126,
      "count": 23567,
      "max": [
        0.6691628694534302,
        0.7969635128974915,
        1.1702765226364136
      ],
      "min": [
        -0.9462471604347229,
        -0.8405163288116455,
        -1.877845287322998
      ],
      "type": "VEC3"
    },
    {
      "bufferView": 1,
      "byteOffset": 9719412,
      "componentType": 5126,
      "count": 23567,
      "max": [
        0.9999797940254211,
        0.999993085861206,
        0.9999806880950928
      ],
      "min": [
        -0.9999106526374817,
        -0.9999992251396179,
        -0.9998997449874878
      ],
      "type": "VEC3"
    },
    {
      "bufferView": 0,
      "byteOffset": 7928424,
      "componentType": 5125,
      "count": 66333,
      "type": "SCALAR"
    }
  ],
  "asset": {
    "extras": {
      "author": "Paul Marx (https://sketchfab.com/my3dscanner)",
      "license": "CC-BY-4.0 (http://creativecommons.org/licenses/by/4.0/)",
      "source": "https://sketchfab.com/3d-models/jump-2-a43b69c84af8427b84e3f3eefcb9ad2c",
      "title": "Jump 2"
    },
    "generator": "Sketchfab-15.25.0",
    "version": "2.0"
  },
  "bufferViews": [
    {
      "buffer": 0,
      "byteLength": 8193756,
      "name": "floatBufferViews",
      "target": 34963
    },
    {
      "buffer": 0,
      "byteLength": 10002216,
      "byteOffset": 8193756,
      "byteStride": 12,
      "name": "floatBufferViews",
      "target": 34962
    }
  ],
  "buffers": [
    {
      "byteLength": 18195972,
      "uri": "scene.bin"
    }
  ],
  "extensionsUsed": [
    "KHR_materials_specular"
  ],
  "materials": [
    {
      "doubleSided": true,
      "extensions": {
        "KHR_materials_specular": {
          "specularColorFactor": [
            1.0,
            1.0,
            1.0
          ],
          "specularFactor": 0.6434353616066887
        }
      },
      "name": "Scene_-_Root",
      "pbrMetallicRoughness": {
        "baseColorFactor": [
          0.20123302497540213,
          0.0799176495705976,
          0.0799176495705976,
          1.0
        ],
        "metallicFactor": 0.0,
        "roughnessFactor": 0.8484784259472852
      }
    }
  ],
  "meshes": [
    {
      "name": "Object_0",
      "primitives": [
        {
          "attributes": {
            "NORMAL": 1,
            "POSITION": 0
          },
          "indices": 2,
          "material": 0,
          "mode": 4
        }
      ]
    },
    {
      "name": "Object_1",
      "primitives": [
        {
          "attributes": {
            "NORMAL": 4,
            "POSITION": 3
          },
          "indices": 5,
          "material": 0,
          "mode": 4
        }
      ]
    },
    {
      "name": "Object_2",
      "primitives": [
        {
          "attributes": {
            "NORMAL": 7,
            "POSITION": 6
          },
          "indices": 8,
          "material": 0,
          "mode": 4
        }
      ]
    },
    {
      "name": "Object_3",
      "primitives": [
        {
          "attributes": {
            "NORMAL": 10,
            "POSITION": 9
          },
          "indices": 11,
          "material": 0,
          "mode": 4
        }
      ]
    },
    {
      "name": "Object_4",
      "primitives": [
        {
          "attributes": {
            "NORMAL": 13,
            "POSITION": 12
          },
          "indices": 14,
          "material": 0,
          "mode": 4
        }
      ]
    },
    {
      "name": "Object_5",
      "primitives": [
        {
          "attributes": {
            "NORMAL": 16,
            "POSITION": 15
          },
          "indices": 17,
          "material": 0,
          "mode": 4
        }
      ]
    },
    {
      "name": "Object_6",
      "primitives": [
        {
          "attributes": {
            "NORMAL": 19,
            "POSITION": 18
          },
          "indices": 20,
          "material": 0,
          "mode": 4
        }
      ]
    }
  ],
  "nodes": [
    {
      "children": [
        1
      ],
      "matrix": [
        1.0,
        0.0,
        0.0,
        0.0,
        0.0,
        2.220446049250313e-16,
        -1.0,
        0.0,
        0.0,
        1.0,
        2.220446049250313e-16,
        0.0,
        0.0,
        0.0,
        0.0,
        1.0
      ],
      "name": "Sketchfab_model"
    },
    {
      "children": [
        2,
        3,
        4,
        5,
        6,
        7,
        8
      ],
      "name": "Jump.stl.cleaner.materialmerger.gles"
    },
    {
      "mesh": 0,
      "name": "Object_2"
    },
    {
      "mesh": 1,
      "name": "Object_3"
    },
    {
      "mesh": 2,
      "name": "Object_4"
    },
    {
      "mesh": 3,
      "name": "Object_5"
    },
    {
      "mesh": 4,
      "name": "Object_6"
    },
    {
      "mesh": 5,
      "name": "Object_7"
    },
    {
      "mesh": 6,
      "name": "Object_8"
    }
  ],
  "scene": 0,
  "scenes": [
    {
      "name": "Sketchfab_Scene",
      "nodes": [
        0
      ]
    }
  ]
}
