{
  "accessors": [
    {
      "bufferView": 2,
      "componentType": 5126,
      "count": 18005,
      "max": [
        0.40458717942237854,
        0.18020856380462646,
        0.4688151776790619
      ],
      "min": [
        -0.4093686044216156,
        -0.27099713683128357,
        -0.4407581686973572
      ],
      "type": "VEC3"
    },
    {
      "bufferView": 2,
      "byteOffset": 216060,
      "componentType": 5126,
      "count": 18005,
      "max": [
        0.9999338984489441,
        0.9999359250068665,
        0.9997373223304749
      ],
      "min": [
        -0.9998515844345093,
        -1.0,
        -0.9999893307685852
      ],
      "type": "VEC3"
    },
    {
      "bufferView": 1,
      "componentType": 5126,
      "count": 18005,
      "max": [
        0.9995606541633606,
        1.0
      ],
      "min": [
        0.0,
        0.00043064355850219727
      ],
      "type": "VEC2"
    },
    {
      "bufferView": 0,
      "componentType": 5125,
      "count": 94212,
      "type": "SCALAR"
    }
  ],
  "asset": {
    "extras": {
      "author": "Rubik (https://sketchfab.com/ronentap16)",
      "license": "CC-BY-4.0 (http://creativecommons.org/licenses/by/4.0/)",
      "source": "https://sketchfab.com/3d-models/gorilla-basketball-55ffb6dd00564f2195c350e136c3a059",
      "title": "Gorilla basketball"
    },
    "generator": "Sketchfab-15.36.0",
    "version": "2.0"
  },
  "bufferViews": [
    {
      "buffer": 0,
      "byteLength": 376848,
      "name": "floatBufferViews",
      "target": 34963
    },
    {
      "buffer": 0,
      "byteLength": 144040,
      "byteOffset": 376848,
      "byteStride": 8,
      "name": "floatBufferViews",
      "target": 34962
    },
    {
      "buffer": 0,
      "byteLength": 432120,
      "byteOffset": 520888,
      "byteStride": 12,
      "name": "floatBufferViews",
      "target": 34962
    }
  ],
  "buffers": [
    {
      "byteLength": 953008,
      "uri": "scene.bin"
    }
  ],
  "images": [
    {
      "uri": "textures/mat0_baseColor.png"
    }
  ],
  "materials": [
    {
      "doubleSided": true,
      "name": "mat0",
      "pbrMetallicRoughness": {
        "baseColorTexture": {
          "index": 0
        },
        "metallicFactor": 0.0
      }
    }
  ],
  "meshes": [
    {
      "name": "Object_0",
      "primitives": [
        {
          "attributes": {
            "NORMAL": 1,
            "POSITION": 0,
            "TEXCOORD_0": 2
          },
          "indices": 3,
          "material": 0,
          "mode": 4
        }
      ]
    }
  ],
  "nodes": [
    {
      "children": [
        1
      ],
      "matrix": [
        1.0,
        0.0,
        0.0,
        0.0,
        0.0,
        2.220446049250313e-16,
        -1.0,
        0.0,
        0.0,
        1.0,
        2.220446049250313e-16,
        0.0,
        0.0,
        0.0,
        0.0,
        1.0
      ],
      "name": "Sketchfab_model"
    },
    {
      "children": [
        2
      ],
      "name": "mesh.obj.cleaner.materialmerger.gles"
    },
    {
      "mesh": 0,
      "name": "Object_2"
    }
  ],
  "samplers": [
    {
      "magFilter": 9729,
      "minFilter": 9987,
      "wrapS": 10497,
      "wrapT": 10497
    }
  ],
  "scene": 0,
  "scenes": [
    {
      "name": "Sketchfab_Scene",
      "nodes": [
        0
      ]
    }
  ],
  "textures": [
    {
      "sampler": 0,
      "source": 0
    }
  ]
}
